/* XPM */
static char *_df076e93d7846d3c50756e00c27a1ff4ZaiU1tkqie2LCfp[] = {
/* columns rows colors chars-per-pixel */
"16 16 13 1 ",
"  c None",
". c #170625",
"X c #5E0B13",
"o c #992415",
"O c #97392A",
"+ c #AD3B22",
"@ c #B54D2B",
"# c #BA4A28",
"$ c #C85A2B",
"% c #CD632D",
"& c #DB7E3D",
"* c #F49746",
"= c #FFB65B",
/* pixels */
"                ",
"                ",
"     ......     ",
"   ..&*==*&..   ",
"  .%&%+=%o%&&.  ",
" .+*&*=%XX&=o&. ",
".+$&$o**$=*&&#%.",
".+#%oX%oX*#X#%+.",
".O$&*%*&=&Xo&%O.",
" .O+%&+*$+$&%@. ",
"  .O+#%$#&+%@.  ",
"   ..O##+@%...  ",
"     ...... .$. ",
"             .  ",
"          .     ",
"                "
};
