/* XPM */
static char *_af74bdddf5744c0b46ad4e842653cecCwCuagq9Bu2JVwsV[] = {
/* columns rows colors chars-per-pixel */
"16 16 3 1 ",
"  c None",
". c #880015",
"X c #FFAEC9",
/* pixels */
"................",
"................",
"................",
"...XXXXXXXXXXXXX",
"...             ",
"...             ",
"..........      ",
"..........      ",
"..........      ",
"...XXXXXXX      ",
"...             ",
"...             ",
"................",
"................",
"................",
"XXXXXXXXXXXXXXXX"
};
