/* XPM */
static char *_b2b2f627f43420188852feaf4fe65d1zRnF5T9JtSCtreOw[] = {
/* columns rows colors chars-per-pixel */
"16 16 8 1 ",
"  c None",
". c #382121",
"X c #A04345",
"o c #BC4D4F",
"O c #4B9A27",
"+ c #D8B78F",
"@ c #FFD7A8",
"# c white",
/* pixels */
"  ............  ",
" ..XXXXooooooo. ",
".O.XXXXXooXXXo. ",
".O.X#.#Xo.ooo.. ",
"...X#.#Xoooooo. ",
" .O.#.#Xoooooo. ",
" .O.XXXXoooooo. ",
" ...XXXXXo..... ",
" ..XXoooo.      ",
"  .X+@@@@.      ",
"...X+@@@@.      ",
".ooX+@@@@.      ",
"..XXXo++o.      ",
" ..Xooooo.      ",
"  .Xo..Xo.      ",
"  .X. .X.       "
};
