/* XPM */
static char *d4317855063746bca6a9e86444a34be795bBzSdfcTnDhwsa[] = {
/* columns rows colors chars-per-pixel */
"16 16 5 1 ",
"  c #010101",
". c gray50",
"X c #C3C3C3",
"o c #FDFBF8",
"O c white",
/* pixels */
"   ..XXOOXX..   ",
" ..OOOOOOOOOO.. ",
" .OOOOOOOOOOOO. ",
".OOOOOOOOOOOOOO.",
".OOOOOOOOOOoOOO.",
"XOOOOOOOOOOOOOOX",
"XOOOOOOOOOOOOOOX",
"OOOOOOOOOOOOOOOO",
"OOOOOOOOOOOOOOOO",
"XOOOOOOOOOOOOOOX",
"XOOOOOOOOOOOOOOX",
".OOOOOOOOOOOOOO.",
".OOOOOOOOOOOOOO.",
" .OOOOOOOOOOOO. ",
" ..OOOOOOOOOO.. ",
"   ..XXOOXX..   "
};
