/* XPM */
static char *b945bb568e9f478dbfbca827d9dbfb79P7tBSyijl5V2Rw6s[] = {
/* columns rows colors chars-per-pixel */
"16 16 23 1 ",
"  c None",
". c #05000E",
"X c #170625",
"o c #6C5F4B",
"O c #6E565B",
"+ c #9C6117",
"@ c #A06313",
"# c #B17925",
"$ c #887476",
"% c #C2903E",
"& c #998B6B",
"* c #DBB761",
"= c #9E8B8A",
"- c #BEB59C",
"; c #F2DF86",
": c #F6E59D",
"> c #E8E2A9",
", c #FFF5A0",
"< c #FFF7B7",
"1 c #F7F1B8",
"2 c #F7F2BB",
"3 c #FFFAC1",
"4 c #FFFEE8",
/* pixels */
" XXXXXXXXXXXX . ",
"X#+%*;3;*4%#+X&.",
" X=$ooooo&-&O&. ",
"X#%#*;,;*1#%*X-.",
"X%*%#***##4#%X&.",
"X%*%+###@*4*@Xo.",
"X#%##*;*#*1*#X. ",
"X%#+*;<;*#*#%X  ",
"X*%+#*;*#@#%*X  ",
"X*%#*#@#**#%*X  ",
"X%#*,*#*;,*#%X  ",
"X#+*;*#*;;>+#X  ",
"X%##*#+#**4#*X  ",
"X*%#+%%#+#1*;X  ",
" X*%%**%#:*;X   ",
"  XXXXXXXXXX    "
};
